<?xml version="1.0" encoding="UTF-8"?>
<svg id="Layer_2" data-name="Layer 2" xmlns="http://www.w3.org/2000/svg" xmlns:xlink="http://www.w3.org/1999/xlink" viewBox="0 0 853.38 974.99">
  <defs>
    <style>
      .cls-1 {
        fill: url(#linear-gradient);
        stroke-width: 0px;
      }
    </style>
    <linearGradient id="linear-gradient" x1="164.29" y1="220.07" x2="799.92" y2="855.7" gradientUnits="userSpaceOnUse">
      <stop offset="0" stop-color="#b461ff"/>
      <stop offset="1" stop-color="#ff48f5"/>
    </linearGradient>
  </defs>
  <g id="Logo_Text_Stacked" data-name="Logo Text Stacked">
    <g id="Logo_copy" data-name="Logo copy">
      <path class="cls-1" d="M701.99,225.47c-2.65,3.03-5.05,6.26-7.19,9.68,2.18-3.39,4.58-6.63,7.19-9.68ZM187.29,652.03c-7.02,0-13.62-3.74-17.23-9.76-5.68-9.49-2.58-21.84,6.91-27.52l153.22-91.74c3.11-1.86,6.67-2.85,10.3-2.85,7.02,0,13.62,3.74,17.23,9.76,5.68,9.49,2.58,21.84-6.91,27.52l-153.22,91.74c-3.11,1.86-6.67,2.85-10.3,2.85ZM512.41,455.6c-7.02,0-13.62-3.74-17.23-9.76-5.68-9.5-2.58-21.84,6.91-27.52l153.22-91.73c3.11-1.86,6.67-2.85,10.3-2.85,7.02,0,13.62,3.74,17.23,9.75,5.68,9.5,2.58,21.85-6.91,27.53l-153.22,91.73c-3.11,1.87-6.67,2.85-10.3,2.85ZM853.38,689.34c0,46.54-37.73,84.28-84.28,84.28-16.48,0-31.84-4.75-44.83-12.92l-211.48,125.1c.09,1.63.15,3.27.15,4.93,0,46.54-37.73,84.28-84.28,84.28s-84.28-37.73-84.28-84.28c0-1.51.04-3.01.12-4.51l-198.7-116.18c22.88-15.42,36.09-40.1,39.63-66.22l198.03,115.79c13.06-8.32,28.56-13.15,45.19-13.15s31.84,4.75,44.83,12.93l211.48-125.1c-.09-1.63-.15-3.27-.15-4.93s.07-3.41.17-5.1L128.96,353.74c-12.96,8.12-28.26,12.83-44.68,12.83-46.54,0-84.28-37.73-84.28-84.28s37.73-84.28,84.28-84.28c16.85,0,32.54,4.97,45.71,13.49l214.51-123.34c-.06-1.29-.1-2.59-.1-3.89,0-46.54,37.73-84.28,84.28-84.28s84.28,37.73,84.28,84.28c0,1.45-.04,2.89-.11,4.32l198.72,115.59c-20.21,13.91-35.18,36.18-38.57,66.84l-198.97-115.73c-13.1,8.38-28.65,13.26-45.35,13.26s-32.54-4.97-45.7-13.49l-214.51,123.34c.06,1.29.1,2.59.1,3.89,0,1.72-.07,3.41-.17,5.1l556.03,330.49c12.96-8.12,28.26-12.83,44.68-12.83,46.54,0,84.28,37.73,84.28,84.28ZM769.1,359.86c42.84,0,77.57-34.73,77.57-77.57s-34.73-77.57-77.57-77.57-77.57,34.73-77.57,77.57,34.73,77.57,77.57,77.57ZM168.55,689.34c0-42.84-34.73-77.57-77.57-77.57s-77.57,34.73-77.57,77.57,34.73,77.57,77.57,77.57,77.57-34.73,77.57-77.57Z"/>
    </g>
  </g>
</svg>